PathFileType	4	(X/Y/Z)	 s06c0401.trc
DataRate	CameraRate	NumFrames	NumMarkers	Units	OrigDataRate	OrigDataStartFrame	OrigNumFrames
200	200	7	48	mm	200	1	2000
Frame#	Time	racr			lacr			c7			jug			rlel			rdr			llel			ldr			s2			lic			ric			lasi			rasi			rpsi			lpsi			rgt			lgt			rth1			rth2			rth3			rth4			rlfc			rmfc			rsh1			rsh2			rsh3			rsh4			rlmal			rcal			rtoe			rmt5			lth1			lth2			lth4			lth3			llfc			lmfc			llmal			lcal			lmt5			lsh1			lsh2			lsh3			lsh4			ltoe			SBIKE			LBIKE			RBIKE			
		X1	Y1	Z1	X2	Y2	Z2	X3	Y3	Z3	X4	Y4	Z4	X5	Y5	Z5	X6	Y6	Z6	X7	Y7	Z7	X8	Y8	Z8	X9	Y9	Z9	X10	Y10	Z10	X11	Y11	Z11	X12	Y12	Z12	X13	Y13	Z13	X14	Y14	Z14	X15	Y15	Z15	X16	Y16	Z16	X17	Y17	Z17	X18	Y18	Z18	X19	Y19	Z19	X20	Y20	Z20	X21	Y21	Z21	X22	Y22	Z22	X23	Y23	Z23	X24	Y24	Z24	X25	Y25	Z25	X26	Y26	Z26	X27	Y27	Z27	X28	Y28	Z28	X29	Y29	Z29	X30	Y30	Z30	X31	Y31	Z31	X32	Y32	Z32	X33	Y33	Z33	X34	Y34	Z34	X35	Y35	Z35	X36	Y36	Z36	X37	Y37	Z37	X38	Y38	Z38	X39	Y39	Z39	X40	Y40	Z40	X41	Y41	Z41	X42	Y42	Z42	X43	Y43	Z43	X44	Y44	Z44	X45	Y45	Z45	X46	Y46	Z46	X47	Y47	Z47	X48	Y48	Z48	
1	0.0050	430.419574	1371.735000	-43.819539	448.015813	1375.718562	-380.301448	415.113887	1460.230307	-212.165507	458.181103	1291.641502	-201.553639	492.922393	1111.068143	28.741982	682.679680	947.702620	-31.212927	487.080402	1109.060049	-456.000186	673.764072	944.841513	-411.327386	-42.640313	1130.434483	-212.870565	146.075512	1101.671058	-378.153086	116.320895	1099.631279	-45.171930	156.992206	1036.274120	-348.409754	137.022935	1047.837995	-78.414496	-6.796462	1170.461670	-183.256226	-9.066496	1165.375004	-248.286918	76.071794	1044.668812	-14.705298	103.304741	1030.921439	-412.216058	177.331866	978.608726	-6.170507	266.024526	959.640725	-9.387080	330.612610	901.842410	-11.180983	279.149242	990.266220	-29.157999	401.690577	820.255321	-32.739260	406.528035	795.960863	-143.905697	368.207220	701.507928	-10.391589	364.370968	616.408009	-31.829233	320.806781	541.382314	-38.765184	387.661911	614.444505	-64.505121	291.806121	464.540783	-46.790552	227.646813	450.536703	-97.782764	488.804308	362.693934	-103.885815	391.795863	366.495518	-32.030583	152.417359	922.734472	-421.754812	224.899154	874.407288	-415.240977	251.535062	897.750015	-402.175127	263.761740	794.396066	-410.613131	296.510519	686.623478	-383.996999	294.641890	667.990543	-267.535973	45.117783	416.880429	-383.416458	-24.641333	442.606542	-337.441430	84.759348	276.379122	-403.244221	230.194886	604.959657	-407.683792	189.237947	529.956388	-390.779689	116.294720	480.583652	-396.449796	208.192738	516.722224	-359.224017	148.775460	220.790668	-342.923601	-204.238416	870.330455	-212.688066	-48.832158	84.041606	-419.387806	-50.048945	79.409275	-22.021735	
2	0.0100	430.785005	1371.374253	-43.844180	448.289487	1375.472830	-380.281826	415.336355	1459.975768	-212.171991	458.563548	1291.466369	-201.459736	492.433988	1110.405066	29.003335	682.492939	947.636434	-31.208292	486.779698	1108.662022	-456.169447	673.624100	944.777256	-411.369027	-42.606631	1130.475049	-212.916049	146.115122	1101.619829	-378.221873	116.285149	1099.636120	-45.165085	157.023044	1036.218561	-348.466920	136.951577	1047.805510	-78.371613	-6.718434	1170.504137	-183.334257	-9.007092	1165.398525	-248.344236	76.051605	1044.762503	-14.673178	103.321390	1030.899643	-412.267111	177.319301	978.760224	-6.167831	266.028287	959.849272	-9.422897	330.708535	902.122998	-11.253322	279.133033	990.457352	-29.229072	401.756711	820.505515	-32.853015	406.570226	796.234723	-144.006661	368.302910	701.765278	-10.428102	364.382197	616.671755	-31.883259	320.834173	541.634645	-38.809076	387.676553	614.685956	-64.552954	291.797190	464.785499	-46.814608	227.636411	450.807814	-97.796251	488.771504	362.871274	-103.886238	391.775211	366.750411	-32.029351	152.394135	922.681512	-421.799373	224.878147	874.334749	-415.289546	251.525993	897.668109	-402.222876	263.707225	794.303896	-410.635193	296.433895	686.501024	-384.039663	294.583868	667.887192	-267.551117	45.154900	416.658257	-383.437441	-24.585634	442.240321	-337.282638	84.796855	276.196507	-403.243208	230.152213	604.804444	-407.693593	189.231094	529.805125	-390.785581	116.294326	480.403198	-396.453925	208.165011	516.584558	-359.230586	148.809191	220.570426	-342.915043	-204.237321	870.314295	-212.689146	-48.822957	84.072014	-419.406119	-50.051788	79.427110	-22.035914	
3	0.0150	431.173976	1370.993664	-43.851817	448.544371	1375.156798	-380.238016	415.603204	1459.718968	-212.184346	458.858375	1291.067221	-201.468315	491.946457	1109.767594	29.382554	682.278127	947.516906	-31.176021	486.470851	1108.239294	-456.384394	673.512048	944.716398	-411.389977	-42.568703	1130.508555	-212.985501	146.184396	1101.517442	-378.255114	116.223934	1099.644741	-45.147740	157.088725	1036.174117	-348.555369	136.897891	1047.804545	-78.334611	-6.669004	1170.533587	-183.409838	-8.928672	1165.405873	-248.422056	76.029759	1044.833507	-14.680197	103.361028	1030.862542	-412.294716	177.328575	978.903637	-6.196115	266.025898	960.019342	-9.481461	330.745456	902.346982	-11.348009	279.112347	990.658108	-29.282683	401.803838	820.765693	-32.933991	406.597136	796.461074	-144.085423	368.308718	702.037082	-10.478669	364.410355	616.883871	-31.976629	320.856694	541.872840	-38.838901	387.703115	614.946684	-64.620065	291.828823	465.023920	-46.831749	227.672662	451.099990	-97.826834	488.735119	363.074814	-103.905156	391.717764	366.988730	-32.038072	152.404701	922.630448	-421.824858	224.850834	874.252499	-415.314016	251.500337	897.571121	-402.279715	263.640634	794.226750	-410.655027	296.363717	686.368716	-384.037901	294.528194	667.793746	-267.543154	45.166897	416.451229	-383.428894	-24.594901	442.024450	-337.325354	84.844264	275.987072	-403.239020	230.101285	604.662238	-407.733723	189.202596	529.673838	-390.797133	116.275412	480.244421	-396.473882	208.136643	516.446564	-359.229549	148.873839	220.335118	-342.927561	-204.245880	870.313644	-212.676943	-48.829619	84.078455	-419.397076	-50.136926	79.712206	-21.808689	
4	0.0200	432.115556	1370.377579	-43.878316	448.780415	1374.665246	-380.590971	415.902432	1459.432818	-212.164380	459.238706	1290.805729	-201.422658	491.468394	1109.192579	29.863494	682.093599	947.364659	-31.144761	486.081539	1107.857970	-456.822984	673.422416	944.655991	-411.416759	-42.625485	1130.545812	-213.156061	146.270849	1101.448665	-378.319237	116.144126	1099.689967	-45.090636	157.174365	1036.095042	-348.625727	136.837946	1047.816856	-78.213634	-6.873939	1170.440826	-183.579321	-8.781135	1165.671483	-248.493263	75.946536	1044.945120	-14.613557	103.348742	1030.792299	-412.184799	177.333377	979.064289	-6.210130	266.045023	960.254353	-9.530069	330.638387	902.415143	-11.346470	278.872439	990.761070	-29.774782	402.595684	820.738213	-32.769646	406.737516	796.721434	-144.125592	368.403923	702.335220	-10.572777	364.651161	617.119660	-31.822676	321.215438	541.992781	-38.791910	387.991264	615.273649	-64.506110	291.936947	465.162014	-46.812224	227.694982	451.384838	-97.852557	488.693562	363.172646	-103.836521	391.689712	367.170256	-32.048013	152.406579	922.590558	-421.851643	224.680472	874.463790	-415.278248	251.325996	897.715971	-402.148901	263.501869	794.037743	-410.663564	296.284376	686.270519	-384.055094	294.464228	667.684211	-267.556247	45.170026	416.251176	-383.441122	-24.608159	441.781763	-337.318370	84.600738	275.441542	-402.808677	230.026538	604.540212	-407.760512	189.018153	529.463278	-391.373427	116.284305	480.239291	-397.116193	207.522969	515.768086	-358.518238	148.937954	220.137431	-342.950319	-204.296309	870.272685	-212.807357	-48.830266	84.066577	-419.385302	-50.136223	79.698276	-21.820627	
5	0.0250	432.201957	1370.225345	-43.856425	449.063717	1374.641121	-380.609080	416.282024	1459.134751	-212.114588	459.417208	1291.258113	-201.282689	491.007578	1108.878142	30.370163	681.986895	947.422204	-30.928585	485.766639	1107.726971	-457.153972	673.391583	944.655524	-411.569227	-42.559664	1130.873324	-213.091853	146.242519	1101.570047	-378.291587	115.989452	1099.826344	-45.325415	157.273623	1036.005068	-348.704451	136.378319	1047.768177	-78.347048	-6.969318	1170.692262	-183.668613	-8.797117	1165.782429	-248.403007	75.710518	1045.245034	-14.450745	103.273289	1031.052433	-412.243364	177.159140	979.433582	-6.325975	266.004132	960.564350	-9.628793	330.453125	902.894400	-11.314974	278.928230	990.961702	-29.815139	402.491126	821.487265	-32.880940	406.667216	797.073286	-144.323165	368.332597	702.800594	-10.646604	364.593447	617.791387	-31.898123	320.967694	542.547595	-38.759912	387.941302	615.851737	-64.512393	291.726081	465.778167	-46.572334	227.723209	451.660048	-97.892756	488.735217	363.384137	-103.835604	391.485757	367.636240	-31.891695	152.281804	922.724473	-421.790526	224.608596	874.461825	-415.408509	251.254703	897.690425	-402.335925	263.383110	794.028594	-410.740941	296.043561	686.359458	-384.156094	294.126879	667.778840	-267.478116	45.031191	416.059810	-383.529626	-24.638723	441.537839	-337.414610	84.648975	275.449263	-403.131902	229.758084	604.691720	-407.856105	188.808168	529.832051	-391.354807	116.272131	480.018521	-396.969182	207.719681	515.901090	-358.893282	148.993891	220.141902	-343.160715	-204.426405	870.274420	-213.113715	-48.711179	84.096321	-419.437325	-50.254058	79.677324	-22.155645	
6	0.0300	433.475688	1369.499538	-42.715391	449.381714	1374.338930	-380.572616	416.639631	1458.863354	-212.110591	459.760427	1291.103903	-201.200450	490.715979	1108.309462	30.715196	681.913765	947.305697	-30.897678	485.557553	1107.396954	-457.434167	673.326697	944.631505	-411.617712	-42.467679	1131.024927	-213.140796	146.327959	1101.510857	-378.369122	115.864539	1099.862124	-45.355419	157.337551	1035.881355	-348.717276	136.183615	1047.737528	-78.315221	-6.882427	1170.764464	-183.782512	-8.715816	1165.832842	-248.414690	75.578541	1045.420835	-14.432621	103.332717	1031.059272	-412.293102	177.167884	979.636056	-6.438525	266.000348	960.787329	-9.739782	330.439574	903.126180	-11.404567	278.939535	991.140544	-29.873089	402.524613	821.838498	-32.938584	406.663737	797.390597	-144.430811	368.355135	703.113990	-10.728683	364.595223	618.098880	-31.984995	320.948428	542.848158	-38.788912	387.958320	616.096323	-64.590202	291.751204	466.074305	-46.600554	227.721575	451.946646	-97.904919	488.700472	363.571713	-103.803121	391.424978	367.896662	-31.873749	152.283688	922.696098	-421.818179	224.638884	874.254927	-415.456859	251.303142	897.459789	-402.371698	263.396077	793.998482	-410.812366	295.909281	686.265154	-384.204547	293.962297	667.678957	-267.469699	44.975836	415.834745	-383.571120	-24.708966	441.267735	-337.447769	84.694297	275.277160	-403.222459	229.629659	604.580738	-407.933665	188.728998	529.722112	-391.410029	116.206918	479.890403	-397.004349	207.715745	515.783750	-358.994795	149.064597	220.049480	-343.252713	-204.428698	870.277812	-213.093908	-48.707890	84.074550	-419.468968	-50.264666	79.694447	-22.188042	
7	0.0350	433.837517	1368.940452	-42.669358	449.714016	1373.989033	-380.549215	417.017837	1458.524812	-212.091737	460.089715	1290.773046	-201.291154	490.472220	1107.814264	31.029423	681.910783	947.218981	-30.873952	485.372624	1107.054681	-457.605540	673.264440	944.580918	-411.596095	-42.377407	1131.136294	-213.239857	146.438352	1101.385921	-378.432179	115.806555	1099.843838	-45.317925	157.430407	1035.751473	-348.745489	136.082569	1047.668471	-78.223870	-6.738026	1170.808310	-183.893898	-8.591836	1165.866878	-248.509697	75.531598	1045.529032	-14.377130	103.408638	1031.030383	-412.328039	177.160798	979.787235	-6.483268	265.993983	960.985040	-9.810443	330.472265	903.360912	-11.466824	278.951728	991.333799	-29.922910	402.549174	822.132858	-33.051983	406.658691	797.630413	-144.571272	368.385405	703.351039	-10.790167	364.604032	618.324951	-32.054574	320.915778	543.131139	-38.796400	387.984702	616.331163	-64.638578	291.762817	466.322119	-46.609540	227.714741	452.224449	-97.874483	488.683011	363.775870	-103.779178	391.395732	368.149798	-31.857137	152.291325	922.640829	-421.856155	224.611134	874.163238	-415.495590	251.299126	897.344534	-402.419049	263.322856	793.874824	-410.830514	295.782783	686.143175	-384.232380	293.795355	667.553809	-267.494139	44.897696	415.636643	-383.588449	-24.812921	441.018421	-337.488242	84.728441	275.097671	-403.259109	229.502697	604.470731	-407.961646	188.572400	529.663339	-391.354887	116.123228	479.729868	-397.020944	207.761992	515.613104	-359.237578	149.156515	219.928471	-343.285121	-204.416692	870.284139	-213.076955	-48.708369	84.082009	-419.492288	-50.265645	79.693851	-22.220473	
